<?xml version="1.0" encoding="utf-8"?>
<!-- Generator: Adobe Illustrator 17.1.0, SVG Export Plug-In . SVG Version: 6.00 Build 0)  -->
<!DOCTYPE svg PUBLIC "-//W3C//DTD SVG 1.1//EN" "http://www.w3.org/Graphics/SVG/1.1/DTD/svg11.dtd">
<svg version="1.1" id="Layer_1" xmlns="http://www.w3.org/2000/svg" xmlns:xlink="http://www.w3.org/1999/xlink" x="0px" y="0px"
	 viewBox="0 0 120.9 173.1" style="enable-background:new 0 0 120.9 173.1;" xml:space="preserve">
<style type="text/css">
	.st0{fill:#93B23D;}
	.st1{fill:#FFFFFF;stroke:#000000;stroke-miterlimit:10;}
	.st2{fill:#846552;}
	.st3{fill:#A6CF45;}
</style>
<path class="st0" d="M119.2,74.7C127,42.2,106.9,9.5,74.3,1.7C41.8-6.1,9.1,14,1.3,46.5c-4.6,19.1,3.9,39.4,11.9,52.3l0.1,0.1
	c0,0,18.5,31,16.3,51.2l20.9,5c5.6-19.3,34.4-39.1,34.4-39.1S112.9,98.8,119.2,74.7z"/>
<path class="st1" d="M-19.3,83.3"/>
<path class="st2" d="M42.1,172.1c-0.2,0.8-1.3,1.2-2.4,1l-8.5-2c-1.1-0.3-1.9-1.1-1.7-1.9l1.7-6.9c0.2-0.8,1.3-1.2,2.4-1l8.5,2
	c1.1,0.3,1.9,1.1,1.7,1.9L42.1,172.1z"/>
<path class="st3" d="M95.4,69c7.8-32.6-1.6-62.7-21-67.4C55-3,32.9,19.7,25.1,52.2c-4.6,19.1-1.2,38.2,2.6,50.1l0,0.1
	c0,0,8.6,28.6,5.4,48.5l12.4,3c5.2-19.4,24.8-41.4,24.8-41.4S89.3,93.2,95.4,69z"/>
</svg>
