<?xml version="1.0" encoding="utf-8"?>
<!-- Generator: Adobe Illustrator 17.1.0, SVG Export Plug-In . SVG Version: 6.00 Build 0)  -->
<!DOCTYPE svg PUBLIC "-//W3C//DTD SVG 1.1//EN" "http://www.w3.org/Graphics/SVG/1.1/DTD/svg11.dtd">
<svg version="1.1" id="Layer_1" xmlns="http://www.w3.org/2000/svg" xmlns:xlink="http://www.w3.org/1999/xlink" x="0px" y="0px"
	 width="612px" height="792px" viewBox="0 0 612 792" enable-background="new 0 0 612 792" xml:space="preserve">
<path fill="#EFCF16" d="M574.8,341.8c35.7-148.7-56.3-298.3-205.4-334c-148.7-35.7-298.3,56.3-334,205C14.3,300.1,53.2,393,89.8,452
	l0.5,0.5c0,0,84.6,141.8,74.6,234.3l95.6,22.9c25.6-88.3,157.4-178.9,157.4-178.9S546,452,574.8,341.8z"/>
<path fill="#FFFFFF" stroke="#000000" stroke-miterlimit="10" d="M-58.9,381.1"/>
<path fill="#846552" d="M222,787.4c-0.9,3.7-5.9,5.5-11,4.6l-38.9-9.2c-5-1.4-8.7-5-7.8-8.7l7.8-31.6c0.9-3.7,5.9-5.5,11-4.6
	l38.9,9.2c5,1.4,8.7,5,7.8,8.7L222,787.4z"/>
<path fill="#FFE411" d="M465.9,315.7c35.7-149.2-7.3-286.9-96.1-308.4c-88.8-21-189.9,82.8-225.6,231.5
	c-21,87.4-5.5,174.8,11.9,229.2v0.5c0,0,39.3,130.9,24.7,221.9l56.7,13.7c23.8-88.8,113.5-189.4,113.5-189.4S438,426.4,465.9,315.7z
	"/>
</svg>
