<svg version="1.1" id="Layer_1" xmlns="http://www.w3.org/2000/svg" xmlns:xlink="http://www.w3.org/1999/xlink" x="0px" y="0px"
	 width="612px" height="326.2px" viewBox="0 233.1 612 326.2" enable-background="new 0 233.1 612 326.2" xml:space="preserve">
<g>
	<rect y="232.8" fill="none" width="612" height="0.3"/>
	<path fill="#F27040" d="M115.1,329.3c19.8-4.1,39.9-7.3,59.8-10.5c17-2.8,34.2-5.2,51.3-7.4c14.6-1.9,29.3-3.4,43.9-4.9
		c12.9-1.3,25.9-2.5,38.8-3.7c11-1,22.1-1.8,33.1-2.6c10.9-0.8,21.8-1.5,32.6-2.1c10-0.6,20-1.1,30.1-1.6
		c11.6-0.6,23.2-1.1,34.7-1.6c10-0.4,20.1-0.7,30.1-1c14.4-0.4,28.8-0.7,43.2-1.1c7.6-0.2,15.2-0.4,22.8-0.5
		c18.8-0.2,37.5-0.4,56.3-0.5c6.7,0,13.4-0.1,20-0.1v-58.6H0v121.1c4.2-0.9,8.4-1.9,12.6-2.8C46.8,344,80.9,336.4,115.1,329.3z"/>
	<path fill="#EE502F" d="M30.7,479.1c14.3-9.9,29.3-18.6,44.9-26c12-5.7,23.9-11.5,36.1-16.7c28.7-12.3,58-22.6,88-31
		c27.2-7.6,54.6-14.9,82.1-21.3c24.8-5.8,49.8-10.6,74.8-15.3c23.1-4.3,46.3-8.1,69.5-11.6c19.4-3,38.9-5.3,58.4-7.8
		c16.1-2.1,32.2-4,48.4-5.8c13.8-1.5,27.6-2.7,41.4-3.9c12.5-1.2,25-2.4,37.6-3.5v-50.6c-6.7,0.1-13.4,0.1-20,0.2
		c-18.8,0.2-37.5,0.4-56.3,0.6c-7.6,0.1-15.2,0.3-22.8,0.5c-14.4,0.4-28.8,0.7-43.2,1.1c-10.1,0.3-20.1,0.7-30.1,1.1
		c-11.6,0.5-23.2,1.1-34.7,1.7c-10,0.5-20.1,1-30.1,1.6c-10.9,0.7-21.8,1.4-32.6,2.2c-11,0.8-22.1,1.7-33.1,2.7
		c-12.9,1.2-25.9,2.4-38.8,3.8c-14.6,1.6-29.3,3.1-43.9,5c-17.1,2.3-34.3,4.8-51.3,7.6c-20,3.3-40,6.6-59.8,10.8
		c-34.2,7.2-68.3,15.1-102.5,22.7c-4.2,1-8.4,1.9-12.6,2.9v153.1c0.3-0.3,0.6-0.5,0.9-0.8C10.8,494.5,20.4,486.3,30.7,479.1z"/>
	<path fill="#E83626" d="M574.4,336.4c-13.8,1.3-27.6,2.4-41.4,3.9c-16.2,1.8-32.3,3.7-48.4,5.8c-19.5,2.5-39,4.9-58.4,7.8
		c-23.2,3.5-46.5,7.4-69.5,11.7c-25,4.7-50,9.5-74.8,15.4c-27.5,6.5-54.9,13.8-82.1,21.5c-29.9,8.4-59.3,18.9-87.9,31.3
		c-12.2,5.3-24.1,11.1-36.1,16.8c-15.7,7.5-30.7,16.2-44.9,26.2c-10.3,7.2-20,15.5-29.9,23.4c-0.3,0.3-0.6,0.5-0.9,0.8v58.2h612
		V332.9C599.5,334,587,335.2,574.4,336.4z"/>
</g>
</svg>
