
<svg version="1.1" id="Layer_1" xmlns="http://www.w3.org/2000/svg" xmlns:xlink="http://www.w3.org/1999/xlink" x="0px" y="0px"
	 width="1156.9px" height="109.9px" viewBox="-45 0 1156.9 109.9" enable-background="new -45 0 1156.9 109.9" xml:space="preserve"
	>
<path fill="#FFFFFF" d="M101.2,28.3c5.8-2.8,9.6-7.1,9.6-12C110.8,7.8,99.5,1,85.5,1c-9.7,0-18.1,3.3-22.4,8.1c-2-0.6-4.3-1-6.7-1
	c-8.5,0-15.4,4.6-15.8,10.4c-0.6,0-1.3,0-2,0c-8.4,0-15.3,3.3-17.2,7.7c-13,1.2-21.3,3.2-21.3,5.5c0,4.8,35.1,7.2,53.9,6.9
	c29.8,0,53.9-3.1,53.9-6.9C107.8,30.4,105.4,29.3,101.2,28.3z"/>
<path fill="#FFFFFF" d="M221.3,61.4c2.6-1.6,4.3-4,4.3-6.7c0-4.7-5-8.5-11.3-8.5c-4.3,0-8.1,1.8-10,4.5c-0.9-0.4-1.9-0.6-3-0.6
	c-3.8,0-6.9,2.5-7,5.8c-0.3,0-0.6,0-0.9,0c-3.7,0-6.8,1.8-7.7,4.3c-5.8,0.7-9.5,1.8-9.5,3c0,2.7,15.6,4,24,3.8c13.2,0,24-1.7,24-3.9
	C224.2,62.6,223.2,61.9,221.3,61.4z"/>
<path fill="#FFFFFF" d="M522,97.5c7-3.2,11.5-8,11.5-13.4c0-9.5-13.6-17.2-30.5-17.2c-11.7,0-21.8,3.7-26.9,9.1
	c-2.4-0.7-5.2-1.1-8.1-1.1c-10.2,0-18.5,5.1-19,11.6c-0.8-0.1-1.6-0.1-2.4-0.1c-10.1,0-18.4,3.7-20.7,8.6
	c-15.6,1.4-25.6,3.6-25.6,6.1c0,5.4,42.2,8.1,64.8,7.7c35.8,0,64.7-3.5,64.7-7.8C530,99.8,527,98.6,522,97.5z"/>
<path fill="#FFFFFF" d="M679.6,28.3c5.8-2.8,9.6-7.1,9.6-12c0-8.5-11.3-15.3-25.3-15.3c-9.7,0-18.1,3.3-22.4,8.1c-2-0.6-4.3-1-6.7-1
	c-8.5,0-15.4,4.6-15.8,10.4c-0.6,0-1.3,0-2,0c-8.4,0-15.3,3.3-17.2,7.7c-13,1.2-21.3,3.2-21.3,5.5c0,4.8,35.1,7.2,53.9,6.9
	c29.8,0,53.9-3.1,53.9-6.9C686.2,30.4,683.8,29.3,679.6,28.3z"/>
<path fill="#FFFFFF" d="M799.7,61.4c2.6-1.6,4.3-4,4.3-6.7c0-4.7-5-8.5-11.3-8.5c-4.3,0-8.1,1.8-10,4.5c-0.9-0.4-1.9-0.6-3-0.6
	c-3.8,0-6.9,2.5-7,5.8c-0.3,0-0.6,0-0.9,0c-3.7,0-6.8,1.8-7.7,4.3c-5.8,0.7-9.5,1.8-9.5,3c0,2.7,15.6,4,24,3.8c13.2,0,24-1.7,24-3.9
	C802.6,62.6,801.6,61.9,799.7,61.4z"/>
<path fill="#FFFFFF" d="M1100.4,97.5c7-3.2,11.5-8,11.5-13.4c0-9.5-13.6-17.2-30.5-17.2c-11.7,0-21.8,3.7-26.9,9.1
	c-2.4-0.7-5.2-1.1-8.1-1.1c-10.2,0-18.5,5.1-19,11.6c-0.8-0.1-1.6-0.1-2.4-0.1c-10.1,0-18.4,3.7-20.7,8.6
	c-15.6,1.4-25.6,3.6-25.6,6.1c0,5.4,42.2,8.1,64.8,7.7c35.8,0,64.7-3.5,64.7-7.8C1108.4,99.8,1105.4,98.6,1100.4,97.5z"/>
</svg>
