<?xml version="1.0" encoding="utf-8"?>
<!-- Generator: Adobe Illustrator 17.1.0, SVG Export Plug-In . SVG Version: 6.00 Build 0)  -->
<!DOCTYPE svg PUBLIC "-//W3C//DTD SVG 1.1//EN" "http://www.w3.org/Graphics/SVG/1.1/DTD/svg11.dtd">
<svg version="1.1" id="Layer_1" xmlns="http://www.w3.org/2000/svg" xmlns:xlink="http://www.w3.org/1999/xlink" x="0px" y="0px"
	 width="1061px" height="107.5px" viewBox="0 0 1061 107.5" enable-background="new 0 0 1061 107.5" xml:space="preserve">
<g id="Layer_1_1_" display="none">
	<path display="inline" fill="#FFFFFF" d="M163,311.5c6.3-2.7,10.4-6.8,10.4-11.4c0-8.1-12.3-14.7-27.5-14.7
		c-10.5,0-19.7,3.1-24.3,7.8c-2.2-0.6-4.7-1-7.3-1c-9.2,0-16.7,4.4-17.2,9.9c-0.7,0-1.5,0-2.1,0c-9.1,0-16.7,3.1-18.7,7.4
		c-14.1,1.2-23.1,3.1-23.1,5.2c0,2.8,15.1,5.2,36.6,6.1c1.6,0.2,3.4,0.4,5.2,0.4c0.8,0,1.6,0,2.5-0.1c4.5,0.1,9.3,0.2,14.3,0.2
		c32.3,0,58.5-3,58.5-6.6C170.2,313.5,167.6,312.4,163,311.5z"/>
	<path display="inline" fill="#FFFFFF" d="M548.5,377.9c9.7-4.1,16-10.5,16-17.6c0-12.5-18.9-22.6-42.3-22.6
		c-16.2,0-30.3,4.8-37.4,12c-3.4-1-7.2-1.5-11.3-1.5c-14.2,0-25.7,6.7-26.4,15.2c-1.1-0.1-2.2-0.1-3.3-0.1c-14,0-25.6,4.8-28.7,11.4
		c-21.7,1.8-35.6,4.8-35.6,8c0,4.3,23.3,8,56.3,9.5c2.5,0.3,5.2,0.5,8.1,0.5c1.3,0,2.5-0.1,3.8-0.1c7,0.2,14.4,0.3,21.9,0.3
		c49.7,0,90-4.6,90-10.2C559.6,381,555.5,379.3,548.5,377.9z"/>
	<path display="inline" fill="#FFFFFF" d="M693.5,311.5c6.3-2.7,10.4-6.8,10.4-11.4c0-8.1-12.3-14.7-27.5-14.7
		c-10.5,0-19.7,3.1-24.3,7.8c-2.2-0.6-4.7-1-7.3-1c-9.2,0-16.7,4.4-17.2,9.9c-0.7,0-1.5,0-2.1,0c-9.1,0-16.7,3.1-18.7,7.4
		c-14.1,1.2-23.1,3.1-23.1,5.2c0,2.8,15.1,5.2,36.6,6.1c1.6,0.2,3.4,0.4,5.2,0.4c0.8,0,1.6,0,2.5-0.1c4.5,0.1,9.3,0.2,14.3,0.2
		c32.3,0,58.5-3,58.5-6.6C700.7,313.5,698,312.4,693.5,311.5z"/>
	<path display="inline" fill="#FFFFFF" d="M1079,377.9c9.7-4.1,16-10.5,16-17.6c0-12.5-18.9-22.6-42.3-22.6
		c-16.2,0-30.3,4.8-37.4,12c-3.4-1-7.2-1.5-11.3-1.5c-14.2,0-25.7,6.7-26.4,15.2c-1.1-0.1-2.2-0.1-3.3-0.1c-14,0-25.6,4.8-28.7,11.4
		c-21.7,1.8-35.6,4.8-35.6,8c0,4.3,23.3,8,56.3,9.5c2.5,0.3,5.2,0.5,8.1,0.5c1.3,0,2.5-0.1,3.8-0.1c7,0.2,14.4,0.3,21.9,0.3
		c49.7,0,90-4.6,90-10.2C1090,381,1086,379.3,1079,377.9z"/>
</g>
<g id="Layer_2">
	<path fill="#FFFFFF" d="M261.4,75.6c3.8-1.9,6.3-4.8,6.3-8c0-5.7-7.5-10.3-16.7-10.3c-6.4,0-11.9,2.2-14.7,5.5
		c-1.3-0.4-2.8-0.7-4.4-0.7c-5.6,0-10.1,3.1-10.4,7c-0.4,0-0.9,0-1.3,0c-5.5,0-10.1,2.2-11.3,5.2c-8.5,0.8-14.1,2.2-14.1,3.7
		c0,2,22,4.3,22.2,4.3c1,0.2,10.4,0.2,13.4,0.2c19.6,0,35.5-2.1,35.5-4.7C265.8,77,264.2,76.2,261.4,75.6z"/>
	<path fill="#FFFFFF" d="M791.9,75.6c3.8-1.9,6.3-4.8,6.3-8c0-5.7-7.5-10.3-16.7-10.3c-6.4,0-11.9,2.2-14.7,5.5
		c-1.3-0.4-2.8-0.7-4.4-0.7c-5.6,0-10.1,3.1-10.4,7c-0.4,0-0.9,0-1.3,0c-5.5,0-10.1,2.2-11.3,5.2c-8.5,0.8-14.1,2.2-14.1,3.7
		c0,2,9.2,3.6,22.2,4.3c1,0.2,2.1,0.2,3.2,0.2c0.5,0,1,0,1.5-0.1c2.8,0.1,5.7,0.1,8.7,0.1c19.6,0,35.5-2.1,35.5-4.7
		C796.3,77,794.7,76.2,791.9,75.6z"/>
</g>
</svg>
