<svg version="1.1" id="Layer_1" xmlns="http://www.w3.org/2000/svg" xmlns:xlink="http://www.w3.org/1999/xlink" x="0px" y="0px"
	 width="400px" height="400px" viewBox="0 0 400 400" enable-background="new 0 0 400 400" xml:space="preserve">
<g>
	<path fill="#F7E9D2" d="M264.8,77.3c0.5,0.5,1,1,1.5,1.5c-0.5,3.9,1.3,5.6,5.1,5.1c0.5,0.5,1,1,1.5,1.5c-0.8,5.4,1.3,7.7,6.6,6.9
		c8.1,1.7,8.6,10.3,12.6,15.4c6.9,8.6,12.2,18.8,14.7,30.1c1.3,5.4,8.1,8.6,6.4,15.4c-2.7,0-5.6,0-8.6,0c-2.4-5.8-2.4-13-10.1-15.2
		c-7.7-15.2-14.5-30.7-28.8-41.4c-1.5-1-3.4-1.9-4.1-4.1c-2.7-6.9-8.6-7.5-14.5-7.3c-6.2-2.5-13.5-3-17.9-9
		c-1.5-2.2-3.4-3.4-5.9-4.5l0,0c-0.5-3.7-1.5-6.9-4.9-8.3c-6.9-3-13.7-6.6-20.9-8.3c-27.5-5.9-55.1-5.8-82.6,0.7
		c-12.4,2.7-24.1,8.6-37.1,9.2c1.3-4.7,5.8-6.6,8.6-10.1c3.9,0.7,6.6-1.7,9-4.1c2.7-2.7,5.8-4.7,9.4-5.1c12.2-1,23.1-8.8,35.7-6.2
		c1.7,0.5,3.9-0.7,5.8-0.8c14.7-1.9,28.8-0.7,42.3,2.4c12.6,2.7,25.8,5.4,37.4,12.6c7.5,0.2,15-0.7,22,1.7l0,0
		c5.6,5.6,7.5,13.5,13.7,18.6l0,0C261.4,76.1,262.5,77.3,264.8,77.3z"/>
	<path fill="#FAF4E5" d="M9,245.6c0.2-0.7,0.2-2.4,1-3c1.3-1,2.5,0.5,3.7,1c7.1,4.7,9.4,12.8,13.5,19.4c8.1,13.7,16,26.9,27.8,38.2
		c10.9,10.7,21.4,20.5,35.9,25.6c1.7,0.7,2.7,2.5,4.1,4.1c0.5,0.7,1,1.5,1,1.9c-0.5,1.3-1.7,1.5-2.7,1.3c-1.9-0.5-4.1-0.7-5.6-1.7
		c-12-6.6-26.3-10.5-35.2-20.3c-12.2-13.3-27.3-24.3-35.2-41.8C13.5,262.7,10.7,254.8,9,245.6z"/>
	<path fill="#FAF4E5" d="M73.5,72C69.5,78,62,79.5,57,84.4C45.3,95.9,33.8,107,27.2,122.8c-3.7,8.8-7.5,17.9-12.4,26.1
		c-2.7,4.7-3,10.1-5.8,14.7c-2.4-0.7-4.5-1-6.9-1.7c4.7-16.7,9.2-33.7,18.2-48.5c7-11.5,13.9-24.3,27.9-30.5
		c3.9-1.7,7.7-5.9,10.1-10.9c2.2-4.5,5.1-9,11.3-8.3C75.2,64.5,72.7,69,73.5,72z"/>
	<path fill="#F2E2D0" d="M295.2,138.2c7.7,2.2,7.7,9.6,10.1,15.2c0,3,0,5.9,1,9.2c4.9,15.6,5.4,31.6,2.7,47.6
		c-0.5,2.2-0.5,4.5,1.9,4.9c3.7,0.5,2.4-2.7,2.5-4.7c0.8-5.8-0.8-12.2,5.1-16.2c-0.7,9,0.7,17.7-2.4,26.9
		c-2.5,8.3-3.2,17.5-6.2,26.1c-1.9,5.4-3.9,10.9-8.6,15c-2.2-1.3-4.2-1.9-6.9-1.7c-0.2-11.8,5.8-21.8,7.5-33.1
		c3.7-23.7,4.7-47.4-0.8-70.9C300.4,149.9,297.5,144.2,295.2,138.2z"/>
	<path fill="#F8EDD8" d="M318.8,194.1c-5.9,4.1-4.2,10.7-5.1,16.2c-0.2,1.9,1,5.1-2.5,4.7c-2.4-0.2-2.4-2.7-1.9-4.9
		c2.5-16,2.2-32-2.7-47.6c-1-3-0.8-5.9-1-9.2c2.7,0,5.6,0,8.6,0c1.9,6.4,5.6,10.1,12.4,6.2c3.2-1.7,5.8,0,7.9,1.3
		c3,1.7,0.7,5.1-0.7,6.6c-2.7,3-3.2,5.8-2.7,9.8C331.2,185.6,326.9,191.4,318.8,194.1z"/>
	<path fill="#F8EDD8" d="M294.9,260.1c2.5-0.2,4.7,0.5,6.9,1.7c0.7,6.4-3.7,11.1-6.6,15.8c-9,14.1-18.8,27.3-32.2,37.4
		c-2.2,1.7-4.2,2.7-6.9,2.5c-1.7-0.7-2.7-1.7-3.4-3.4c1.7-9.6,10.1-14.7,16.2-20.3c8.1-7.1,12.6-16,17.7-24.8
		C288.9,265.7,288.7,259.9,294.9,260.1z"/>
	<path fill="#F8EDD8" d="M351.1,253.3c7.1,2.5,10.5,9.2,8.1,18.2c-1.5,5.8-3.9,12-12.2,10.7c-2.7-0.5-5.8,0.8-7.9-1.7
		c-1.3-4.2-4.5-5.9-8.6-6.9l0,0c-0.7-3,2.2-7.3-3.2-8.6c0-1,0-2.4,0-3.4c6.2-1.5,11.3-4.9,15.2-10.1c1.7,0,3.4,0,5.1,0
		C348.3,253.1,349.6,253.3,351.1,253.3z"/>
	<path fill="#EBD7CA" d="M78.4,65.4c13-0.7,24.8-6.4,37.1-9.2c27.5-6.4,55.1-6.4,82.6-0.7c7.3,1.5,14.1,5.1,20.9,8.3
		c3.4,1.5,4.5,4.9,4.9,8.3c-26.1-18.2-55.3-18.6-85.4-16c-12.6,1-24.1,6.6-36.5,7.7c-6.9,0.7-11.1,7.7-18.6,6.6
		C83.5,67.1,76.1,71.4,78.4,65.4z"/>
	<path fill="#EBD7CA" d="M225.7,53.7c-11.5-7.1-24.8-9.8-37.4-12.6c-13.5-3-27.5-4.2-41.6-2.2c-1.9,0.2-3.9,1.3-5.8,0.8
		c-12.8-2.4-23.7,5.4-35.7,6.2c-3.7,0.2-6.6,2.4-9.4,5.1c-2.4,2.4-5.1,4.7-9,4.1c-0.8-1.5-2.2-1.7-3.7-1.7c0.8-1.5,1.7-3.9,2.7-4.1
		c13-3.4,24.8-11.3,38.6-12c13-0.8,26.3-3.9,39.3-2.4c12.8,1.5,26.1-0.5,38.2,4.7c7.7,3.2,15.4,6.4,23.3,8.8
		C225.7,50.4,225.7,52,225.7,53.7z"/>
	<path fill="#EEDACC" d="M363,136.7c-2.4,7.9-16,10.3-24.3,5.1c-9.4-5.6-11.3-14.1-12.4-23.5c-0.8-6.4,9.2-16.2,16.9-17.3
		c14.3-1.9,24.6,3.9,28.6,17.5c1.3,4.7,1.9,10.9-3.4,14.7l-0.2-0.2c0-9,1.7-18.2-7.9-24.6c-6.6-4.5-13-5.8-19.4-2.4
		c-5.6,3-11.3,7.3-10.1,15.4c0.8,5.1,3.9,10.5,6.9,12.8c4.2,3.4,9.4,11.8,17.5,4.2C356.6,136.9,360.1,137.1,363,136.7
		C362.8,136.5,363,136.7,363,136.7z"/>
	<path fill="#FCF6EB" d="M252.9,314.1c0.7,1.5,1.7,2.7,3.4,3.4c-0.2,1.5-0.7,2.5-1.9,3.4c-18.2,11.3-38.4,17.9-58.7,24.1
		c-3.2,0.8-11.1,3.4-12,0s6.6-3,10.1-3.7c9.8-1.9,18.4-7.3,28.2-9.8c8.6-2.2,16-9,23.7-14.3C247.7,315.8,249.7,313.9,252.9,314.1z"
		/>
	<path fill="#FCF6EB" d="M2.4,161.9c2.4,0.7,4.5,1,6.9,1.7c-0.2,11.5-2.7,22.6-1.7,34.2c0.2,3-1,5.4-3.9,5.6
		c-4.2,0.2-2.7-3.4-2.7-5.6C0.7,185.8,0.1,173.8,2.4,161.9z"/>
	<path fill="#F8EDD8" d="M366.9,227.8c-5.4,0.2-7.7-1.7-7.3-5.9c0.7-5.4,3-9.2,9.4-9.4c6.2,0,6.9,4.2,7.1,8.3
		C376.3,228.1,369.2,225.7,366.9,227.8z"/>
	<path fill="#E1CABF" d="M83.5,53.5c1.5,0,2.7,0.5,3.7,1.7c-2.5,3.4-7.1,5.6-8.6,10.1c-2.5,5.8,5.1,1.7,5.1,5.1
		c-3,2.7-6.6,1.3-10.1,1.3c-0.8-3,1.7-7.5-3.9-8.1c-0.2-4.2,1.5-6.6,5.9-7.3C78.4,56,81,54.5,83.5,53.5z"/>
	<path fill="#FAF4E5" d="M358.1,233c4.2-0.2,6.4,1.5,6.4,5.9c0,4.9-3,5.9-7.3,5.9c-4.1,0-6.4-1.7-6.4-5.9
		C351.1,233.8,353.8,232.8,358.1,233z"/>
	<path fill="#F2E2D0" d="M400,250.3c-0.2,2.7-2.7,5.6-7.1,6.2c-3,0.5-4.9-0.8-4.5-4.2c0.5-4.1,2.7-6.6,6.6-7.3
		C397.6,244.5,400.2,245.2,400,250.3z"/>
	<path fill="#EBD7CA" d="M224,72.2c2.4,1,4.2,2.4,5.9,4.5c4.2,5.9,11.8,6.4,17.9,9C236.7,89.7,225.1,83.1,224,72.2z"/>
	<path fill="#EEDACC" d="M225.7,53.7c0-1.5,0-3.2,0-4.7c5.4,0,10.7-0.5,16,0.2c2.7,0.5,5.4,2.7,5.9,6.2
		C240.7,52.8,233.2,53.8,225.7,53.7z"/>
	<path fill="#EEDACC" d="M261.4,73.7c-5.9-5.1-8.1-13.3-13.7-18.6C258,55.5,261,59.6,261.4,73.7z"/>
	<path fill="#F2E2D0" d="M342.5,251.6c-3.9,5.1-9,8.6-15.2,10.1C329.1,253.5,335.3,251.6,342.5,251.6z"/>
	<path fill="#EEDACC" d="M279.7,92.5c-5.4,0.8-7.5-1.7-6.6-6.9C277.2,86.3,279.3,88.4,279.7,92.5z"/>
	<path fill="#F2E2D0" d="M330.6,273.5c3.9,0.8,7.3,2.5,8.6,6.9C334.6,280.4,332.1,277.6,330.6,273.5z"/>
	<path fill="#F2E2D0" d="M327.4,265.2c5.6,1,2.5,5.6,3.2,8.6C325.5,272.5,328,268.2,327.4,265.2z"/>
	<path fill="#EEDACC" d="M271.6,84c-3.9,0.5-5.6-1.3-5.1-5.1C269.5,79.1,271.2,80.8,271.6,84z"/>
	<path fill="#EEDACC" d="M368.2,133.3c-0.5,3.2-2.7,3.2-5.1,3.4l-0.2-0.2C363.6,134.4,365.3,133.1,368.2,133.3L368.2,133.3z"/>
	<path fill="#EEDACC" d="M264.8,77.3c-2.4,0-3.4-1-3.4-3.4C263.5,73.9,264.6,75.2,264.8,77.3z"/>
	<path fill="#FAF4E5" d="M99.3,336.7c0.2-0.5,0.2-1.3,0.7-1.3c0.5-0.2,0.8,0.5,1.3,0.7c-0.2,0.5-0.2,1.3-0.7,1.3
		C100.4,337.4,100,337,99.3,336.7z"/>
	<path fill="#F2E2D0" d="M351.1,253.3c-1.5,0-2.7-0.2-3.4-1.7C348.9,251.6,350.4,252,351.1,253.3z"/>
	<path fill="#F9ECD4" d="M368,133.1c-2.4,0-4.1,1-5.1,3.4c-2.7,0.7-6.2,0.5-7.9,2.2c-8.1,7.5-13-0.8-17.5-4.2
		c-3-2.4-5.9-7.7-6.9-12.8c-1.3-8.3,4.5-12.4,10.1-15.4c6.4-3.4,12.8-2.2,19.4,2.4C369.4,114.9,368,124.1,368,133.1z"/>
</g>
</svg>
