<?xml version="1.0" encoding="utf-8"?>
<!-- Generator: Adobe Illustrator 17.1.0, SVG Export Plug-In . SVG Version: 6.00 Build 0)  -->
<!DOCTYPE svg PUBLIC "-//W3C//DTD SVG 1.1//EN" "http://www.w3.org/Graphics/SVG/1.1/DTD/svg11.dtd">
<svg version="1.1" xmlns="http://www.w3.org/2000/svg" xmlns:xlink="http://www.w3.org/1999/xlink" x="0px" y="0px" width="461.8px"
	 height="500px" viewBox="0 0 461.8 500" enable-background="new 0 0 461.8 500" xml:space="preserve">
<g id="Layer_2" display="none">
	
		<image display="inline" overflow="visible" width="1536" height="1260" xlink:href="../../../../../../../Users/tharon/Desktop/o-BRAIN-facebook.jpg"  transform="matrix(-0.2911 0 0 0.2911 449.7471 -10.8771)">
	</image>
</g>
<g id="Layer_1">
	<ellipse fill="#7EAD79" cx="242.3" cy="478.3" rx="198.4" ry="21.7"/>
	<ellipse opacity="0.13" cx="243.3" cy="472" rx="92.5" ry="7.8"/>
	<path fill="#443223" d="M243,0l7.1,469c0.1,3.9-3.2,5-7.1,5.1c-3.9,0.1-6.3-1-7.3-4.9c0-0.1,0-0.2,0-0.2L243,0z"/>
	<path fill="#443223" d="M244.8,301c0,0-22.2-0.3-55.5-0.7l-0.8,0l-0.6,0l-0.4,0c-0.5,0-1.1-0.1-1.6-0.1c-0.7-0.1-1.4-0.2-2-0.3
		c-0.7-0.1-1.3-0.3-1.9-0.5c-2.5-0.7-4.9-1.8-7.1-3.3c-4.4-3-7.8-7.7-9.2-13.2c-0.4-1.4-0.6-2.8-0.7-4.2c0-0.7-0.1-1.4-0.1-2.1
		c0-0.6,0-1.2,0-1.8c0-2.4,0.1-4.9,0.1-7.4c0.1-5,0.1-10.1,0.2-15.3c0.3-20.8,0.5-43,0.8-65.3C167.1,97.9,168.3,9,168.3,9
		s1.1,88.9,2.3,177.7c0.3,22.2,0.6,44.4,0.8,65.3c0.1,5.2,0.1,10.3,0.2,15.3c0,2.5,0.1,5,0.1,7.4c0,0.6,0,1.2,0,1.8l0.1,1.5
		c0.1,1,0.3,2,0.6,2.9c1.1,3.8,3.6,7,6.6,9c1.5,1,3.2,1.7,4.9,2.2c0.9,0.3,1.6,0.3,2.4,0.4c0.5,0,1.1,0,1.6,0.1l0.4,0
		c0.1,0-0.3,0-0.1,0l0.1,0l0.2,0l0.8,0c33.3-0.4,55.5-0.7,55.5-0.7V301z"/>
	<path fill="#443223" d="M168.8,265.5c0,0-4.5-0.1-12.3-0.2c-3.9-0.1-8.7-0.1-14.1-0.2c-2.7,0-5.6-0.1-8.7-0.1c-0.4,0-0.8,0-1.2,0
		l-0.3,0l-0.5,0l-0.6,0c-0.4,0-0.8-0.1-1.2-0.1c-0.2,0-0.4,0-0.6,0l-0.7-0.1c-1-0.2-2-0.3-2.9-0.5c-0.9-0.2-1.8-0.5-2.7-0.8
		c-3.6-1.3-7.1-3.5-10-6.4c-2.9-2.9-5.2-6.7-6.5-10.8c-0.3-1-0.6-2.1-0.8-3.2c-0.1-0.5-0.2-1.1-0.2-1.6l-0.1-0.8l0-0.8
		c0-0.6,0-1.1-0.1-1.7c0-0.5,0-1,0-1.5c0-1,0-2,0-3c0.1-4,0.1-8.2,0.2-12.4c0.2-16.8,0.5-34.7,0.7-52.7c1-71.7,2-143.4,2-143.4
		s1,71.7,2,143.4c0.3,17.9,0.5,35.9,0.7,52.7c0.1,4.2,0.1,8.3,0.2,12.4c0,1,0,2,0,3c0,0.5,0,1,0,1.5l0.1,1.3l0,0.6l0.1,0.6l0.2,1.3
		c0.2,0.8,0.4,1.6,0.7,2.4c1.1,3.2,2.9,5.9,5.2,8.1c2.3,2.2,4.9,3.7,7.7,4.6c1.4,0.5,2.8,0.8,4,0.9l0.5,0.1c0.2,0,0.4,0,0.6,0
		c0.4,0,0.8,0,1.2,0l0.6,0l0.1,0c0.2,0-0.2,0-0.1,0l0.1,0l0.3,0c0.4,0,0.8,0,1.2,0c3.1,0,6-0.1,8.7-0.1c5.5-0.1,10.2-0.1,14.1-0.2
		c7.8-0.1,12.3-0.2,12.3-0.2V265.5z"/>
	<path fill="#443223" d="M106.8,215c0,0-12.7-0.2-31.7-0.5c-1.2,0-2.4,0-3.6-0.1l-1.1,0l-0.9-0.1c-0.6,0-1.2-0.1-2-0.2
		c-0.7-0.1-1.5-0.2-2.2-0.4c-0.7-0.2-1.4-0.4-2.1-0.6c-0.7-0.3-1.4-0.5-2.1-0.8c-0.7-0.3-1.3-0.7-2-1c-5.3-2.9-9.6-8.1-11.4-14.4
		c-0.2-0.8-0.4-1.6-0.5-2.4c-0.1-0.8-0.3-1.6-0.3-2.4c0-0.8-0.1-1.7-0.1-2.4c0-0.8,0-1.5,0-2.3c0-3.1,0.1-6.1,0.1-9.3
		c0.1-6.2,0.2-12.6,0.3-18.9C48,108.7,48.8,58,48.8,58s0.8,50.7,1.5,101.3c0.1,6.3,0.2,12.7,0.3,18.9c0,3.1,0.1,6.2,0.1,9.3
		c0,0.8,0,1.5,0,2.3c0,0.8,0.1,1.4,0.1,2.1c0,0.7,0.2,1.4,0.3,2c0.1,0.7,0.3,1.3,0.5,2c1.6,5.2,5.3,9.3,9.7,11.5
		c0.6,0.3,1.1,0.5,1.6,0.8c0.6,0.2,1.1,0.4,1.7,0.6c0.6,0.2,1.1,0.3,1.7,0.4c0.6,0.2,1.1,0.2,1.6,0.3c0.5,0.1,1.2,0.1,1.8,0.1l0.9,0
		l0.8,0c1.2,0,2.4,0,3.6-0.1c19-0.3,31.7-0.5,31.7-0.5V215z"/>
	<path fill="#443223" d="M50.8,192c0,0-1.8,0-5-0.1c-1.6,0-3.5-0.1-5.7-0.1c-0.3,0-0.6,0-0.8,0l-0.4,0l-0.3,0l-0.2,0
		c-0.6-0.1-1.2-0.1-1.8-0.2c-0.7-0.1-1.5-0.2-2.2-0.4c-0.7-0.2-1.4-0.4-2.1-0.6c-2.8-1-5.7-2.8-8.1-5.3c-1.2-1.3-2.2-2.7-3.1-4.3
		c-0.8-1.6-1.5-3.3-1.9-5.2c-0.1-0.4-0.2-0.9-0.2-1.4c-0.1-0.5-0.1-0.9-0.2-1.4c0-0.9-0.1-1.9,0-2.8c0-1.8,0.1-3.5,0.1-5.3
		c0.1-3.6,0.2-7.2,0.2-10.8c0.6-29,1.3-58.1,1.3-58.1s0.6,29,1.3,58.1c0.1,3.6,0.2,7.3,0.2,10.8c0,1.8,0.1,3.6,0.1,5.3
		c0,0.9,0.1,1.7,0.1,2.5c0,0.4,0.1,0.8,0.2,1.2c0.1,0.4,0.1,0.8,0.2,1.1c0.3,1.5,1,2.9,1.7,4.2c0.8,1.3,1.6,2.4,2.6,3.4
		c2,2,4.4,3.3,6.6,4c0.6,0.2,1.2,0.3,1.7,0.4c0.6,0.1,1.1,0.1,1.6,0.2c0.5,0.1,1.2,0,1.8,0.1l0.2,0l0,0c0,0,0.1,0-0.1,0l0.1,0l0.1,0
		l0.4,0c0.3,0,0.6,0,0.8,0c2.2,0,4.1-0.1,5.7-0.1c3.2-0.1,5-0.1,5-0.1V192z"/>
	<path fill="#443223" d="M286.3,9c0,0,1.1,93.3,2.3,186.7c0.6,46.7,1.1,93.3,1.5,128.3c0,1.1,0,2.2,0,3.2l0,0.4l0,0.2l0,0.4l0,0.8
		l0,0.8l0,0.4c0,0.1,0,0.3-0.1,0.5c-0.1,0.7-0.2,1.3-0.3,2c-0.1,0.6-0.3,1.2-0.4,1.8c-0.2,1.2-0.7,2.3-1.1,3.4
		c-1.8,4.3-4.7,8-8,10.6c-3.3,2.6-7,4.2-10.6,5c-0.9,0.1-1.8,0.4-2.7,0.4c-0.4,0-0.9,0.1-1.3,0.1l-0.6,0l-0.5,0
		c-1.4,0-2.8,0.1-4,0.1c-10.2,0.3-16,0.5-16,0.5l-0.2-9c0,0,5.8,0,16-0.1c1.3,0,2.6,0,4,0l0.5,0l0.4,0c0.3,0,0.6,0,0.9,0
		c0.6,0,1.2-0.2,1.8-0.2c2.4-0.4,5-1.5,7.3-3.2c2.3-1.7,4.4-4.2,5.7-7.1c0.3-0.8,0.6-1.5,0.8-2.3c0.1-0.4,0.2-0.8,0.3-1.2
		c0.1-0.4,0.1-0.7,0.2-1.1c0-0.1,0-0.2,0.1-0.3l0-0.4l0-0.8l0-0.8l0-0.1c0-0.2,0,0.2,0,0.1l0-0.2l0-0.4c0-1.1,0-2.2,0-3.2
		c0.4-35,1-81.7,1.5-128.3C285.1,102.3,286.3,9,286.3,9z"/>
	<path fill="#443223" d="M287.8,319.5c0,0,21.5,0.3,53.7,0.6c4,0,8.2,0.1,12.6,0.1c1.1,0,2.2,0,3.3,0c0.6,0,1.1,0,1.7,0l0.8,0l0.1,0
		c0.1,0-0.2,0-0.1,0l0.2,0l0.4,0c0.6,0,1.1,0,1.7-0.1c0.5-0.1,0.9-0.1,1.4-0.2l0.7-0.1l0.7-0.2c0.5-0.1,1-0.2,1.5-0.4
		c1.9-0.6,3.8-1.5,5.5-2.6c1.7-1.2,3.3-2.6,4.7-4.2c2.7-3.3,4.5-7.5,4.8-11.9c0-0.6,0.1-1.1,0.1-1.7l0-1.9c0-1.3,0-2.5,0-3.8
		c0-2.6,0.1-5.1,0.1-7.7c0.1-5.2,0.1-10.4,0.2-15.7c0.1-10.6,0.2-21.3,0.4-32c1-85.9,2-171.8,2-171.8s1,85.9,2,171.8
		c0.1,10.7,0.3,21.5,0.4,32c0.1,5.3,0.1,10.5,0.2,15.7c0,2.6,0.1,5.2,0.1,7.7c0,1.3,0,2.6,0,3.8l0,1.9c0,0.7,0,1.4-0.1,2.1
		c-0.3,5.6-2.4,11-5.8,15.2c-1.7,2.1-3.7,4-5.8,5.5c-2.2,1.5-4.6,2.7-7,3.5c-0.6,0.2-1.2,0.4-1.9,0.5l-0.9,0.2l-1,0.2
		c-0.7,0.1-1.4,0.2-2,0.3c-0.6,0-1.1,0.1-1.7,0.1l-0.4,0l-0.2,0l-0.4,0l-0.8,0c-0.6,0-1.1,0-1.7,0c-1.1,0-2.2,0-3.3,0
		c-4.3,0.1-8.5,0.1-12.6,0.1c-32.2,0.4-53.7,0.6-53.7,0.6V319.5z"/>
	<path fill="#443223" d="M385.8,270c0,0,9.3,0.2,23.2,0.4c1.7,0,3.5,0.1,5.4,0.1c0.5,0,0.9,0,1.4,0l0.6,0l0.7,0c0.5,0,1,0,1.5,0
		c0.4-0.1,0.9-0.1,1.3-0.2c0.9-0.1,1.8-0.4,2.7-0.6c0.4-0.1,0.9-0.3,1.3-0.5l0.7-0.2l0.7-0.3c1.8-0.7,3.4-1.8,5-3.1
		c3.1-2.6,5.6-6.1,6.8-10.2c0.7-2,0.9-4.2,0.9-6.4c0-2.3,0.1-4.6,0.1-6.9c0.6-37,1.3-74.1,1.3-74.1s0.6,37,1.3,74.1
		c0,2.3,0.1,4.6,0.1,6.9c0,2.4-0.1,4.9-0.8,7.2c-1.2,4.7-3.9,8.9-7.4,12c-1.8,1.5-3.7,2.9-5.7,3.8l-0.8,0.4l-0.8,0.3
		c-0.5,0.2-1,0.4-1.6,0.6c-1.1,0.3-2.1,0.6-3.2,0.8c-0.5,0.1-1.1,0.2-1.6,0.3c-0.5,0-1,0.1-1.5,0.1l-0.7,0l-0.8,0
		c-0.5,0-0.9,0-1.4,0c-1.9,0-3.7,0.1-5.4,0.1c-13.9,0.2-23.2,0.4-23.2,0.4V270z"/>
	<path fill="#443223" d="M50.8,167c0,0,0,0,0.1,0c0.1,0,0.3,0,0.5,0c0.2,0,0.6,0,0.8,0c0.3,0,0.6-0.1,1-0.1c0.8-0.2,1.7-0.4,2.7-0.9
		c1-0.5,2-1.2,3-2.1c1-1,1.8-2.2,2.4-3.6c0.1-0.4,0.3-0.7,0.4-1.1c0.1-0.4,0.2-0.8,0.3-1.2c0.1-0.4,0.1-0.8,0.2-1.3
		c0-0.4,0-0.9,0.1-1.4c0.1-3.8,0.2-7.8,0.3-11.9c0.4-16.2,0.8-32.3,0.8-32.3s0.4,16.2,0.8,32.3c0.1,4,0.2,8.1,0.3,11.9
		c0,0.5,0,0.9,0,1.5c0,0.5,0,1-0.1,1.5c0,0.5-0.1,1-0.3,1.4c-0.1,0.5-0.3,0.9-0.4,1.4c-0.6,1.8-1.6,3.3-2.8,4.6
		c-1.1,1.2-2.4,2.1-3.6,2.8c-1.2,0.7-2.4,1-3.3,1.3c-0.5,0.1-1,0.2-1.4,0.2c-0.4,0.1-0.7,0.1-0.9,0.1c-0.2,0-0.4,0-0.5,0
		c-0.2,0-0.3,0-0.3,0V167z"/>
	<path fill="#443223" d="M107.8,146c0,0,0.3,0,0.9,0c0.1,0,0.2,0,0.2,0l0.1,0l0,0c-0.1,0,0,0-0.1,0l0,0l0,0l0.1,0c0.2,0,0.4,0,0.6,0
		c0.4,0,1,0,1.4-0.1c0.5-0.1,1-0.1,1.6-0.3c0.3-0.1,0.6-0.1,0.9-0.2c0.3-0.1,0.7-0.2,1-0.3c1.3-0.5,2.9-1.2,4.3-2.3
		c1.4-1.1,2.8-2.5,3.9-4.3c1.1-1.8,1.9-3.8,2.2-6.1c0.2-1.1,0.2-2.3,0.2-3.5c0-1.2,0-2.5,0.1-3.8c0-2.5,0.1-5.1,0.1-7.7
		c0.4-20.6,0.8-41.3,0.8-41.3s0.4,20.6,0.8,41.3c0,2.6,0.1,5.2,0.1,7.7c0,1.3,0,2.5,0.1,3.8c0,1.2,0,2.5-0.1,3.8
		c-0.3,2.5-1.1,5-2.3,7c-1.2,2.1-2.7,3.8-4.3,5.1c-1.6,1.4-3.3,2.2-4.9,2.9c-0.4,0.2-0.8,0.3-1.2,0.4c-0.4,0.1-0.8,0.2-1.1,0.3
		c-0.7,0.2-1.4,0.3-2,0.4c-0.7,0.1-1.1,0.1-1.6,0.2c-0.2,0-0.4,0-0.6,0c-0.1,0-0.2,0-0.3,0c-0.1,0-0.2,0-0.2,0c-0.6,0-0.9,0-0.9,0
		V146z"/>
	<path fill="#443223" d="M168.8,218.5C168.8,218.5,168.7,218.5,168.8,218.5c-0.2,0-0.2,0-0.3,0c0,0-0.1,0-0.2,0
		c-0.2,0-0.6,0-1.1-0.1c-1.2-0.2-2.8-0.5-4.6-1.3c-1.8-0.9-3.9-2.4-5.5-4.7c-0.8-1.2-1.5-2.5-1.9-4c-0.2-0.8-0.4-1.5-0.5-2.4
		c-0.1-0.4-0.1-0.8-0.1-1.2l0-0.6l0-0.6c0.2-12.1,0.4-28.1,0.7-44.2c0.5-32.2,1-64.3,1-64.3s0.5,32.2,1,64.3
		c0.3,16.1,0.5,32.2,0.7,44.2l0,0.6l0,0.5c0,0.3,0,0.6,0.1,0.9c0.1,0.6,0.3,1.2,0.4,1.8c0.4,1.1,0.9,2.1,1.5,2.9
		c1.2,1.7,2.8,2.7,4.2,3.3c1.4,0.6,2.6,0.8,3.2,0.9c0.5,0,0.8,0,1.1,0c0.1,0,0.1,0,0.2,0c0,0,0,0,0.1,0l0,0l0,0c0,0,0.1,0-0.1,0l0,0
		l0,0c0.1,0,0.1,0,0.1,0V218.5z"/>
	<path fill="#443223" d="M167.8,172.5c0,0,0.5,0,1.6,0c0.1,0,0.1,0,0.2,0l0.1,0l0,0c0,0,0.1,0-0.1,0l0,0l0.1,0c0.1,0,0.3,0,0.5,0
		c0.3,0,0.7,0,1,0c0.4,0,0.7-0.1,1-0.1c0.4-0.1,0.7-0.1,1.1-0.2c1.7-0.3,3.7-1.1,5.7-2.4c2-1.3,4-3.3,5.5-5.9
		c0.7-1.3,1.3-2.8,1.7-4.3c0.1-0.4,0.2-0.8,0.2-1.2c0.1-0.4,0.2-0.8,0.2-1.2c0-0.4,0.1-0.8,0.1-1.3c0-0.5,0-0.9,0-1.4
		c0.1-3.8,0.1-7.7,0.2-11.8c0.1-8.2,0.2-17,0.4-25.7c0.5-35,1-70,1-70s0.5,35,1,70c0.1,8.7,0.3,17.5,0.4,25.7
		c0.1,4.1,0.1,8.1,0.2,11.8c0,0.5,0,0.9,0,1.4c0,0.5,0,1-0.1,1.5c0,0.5-0.1,1-0.2,1.5c-0.1,0.5-0.1,1-0.2,1.4
		c-0.4,1.9-1.1,3.6-1.9,5.2c-1.7,3.2-4,5.6-6.4,7.3c-2.4,1.7-4.8,2.6-6.9,3.1c-0.5,0.2-1,0.2-1.5,0.3c-0.5,0.1-1,0.2-1.3,0.2
		c-0.4,0-0.7,0-1,0.1c-0.2,0-0.3,0-0.4,0l-0.1,0l-0.2,0c-0.1,0-0.1,0-0.2,0c-1,0-1.6,0-1.6,0V172.5z"/>
	<path fill="#443223" d="M242.8,247.5c0,0-0.7,0-2.1,0c-0.7,0-1.5,0-2.5,0c-0.2,0-0.5,0-0.8,0c-0.1,0-0.3,0-0.4,0l-0.3,0l-0.2,0
		c-0.3,0-0.6,0-0.9-0.1c-0.3,0-0.6,0-1-0.1c-0.7-0.1-1.5-0.2-2.3-0.4c-0.8-0.2-1.5-0.5-2.3-0.8c-1.6-0.7-3.2-1.6-4.7-2.8
		c-3-2.5-5.7-6.4-6.4-11.1c-0.2-1.2-0.3-2.4-0.3-3.6c0-1.1,0-2.3,0-3.5c0-2.3,0.1-4.8,0.1-7.3c0.1-5,0.1-10.3,0.2-15.7
		c0.1-10.9,0.2-22.5,0.4-34.1c0.5-46.5,1-92.9,1-92.9s0.5,46.5,1,92.9c0.1,11.6,0.3,23.2,0.4,34.1c0.1,5.4,0.1,10.7,0.2,15.7
		c0,2.5,0.1,4.9,0.1,7.3c0,1.2,0,2.3,0,3.5c0,1.1,0.1,2,0.3,3c0.7,3.9,2.9,6.9,5.4,8.9c1.2,1,2.6,1.7,3.8,2.2
		c0.6,0.2,1.3,0.4,1.9,0.6c0.6,0.2,1.2,0.2,1.7,0.3c0.2,0.1,0.5,0.1,0.9,0.1c0.3,0,0.6,0,0.9,0l0.2,0l0.1,0c0,0,0.1,0-0.1,0l0,0
		l0.1,0c0.1,0,0.3,0,0.4,0c0.3,0,0.5,0,0.8,0c1,0,1.8,0,2.5,0c1.4,0,2.1,0,2.1,0V247.5z"/>
	<path fill="#443223" d="M285.8,270.5c0,0,1,0,2.9,0c0.2,0,0.5,0,0.7,0l0.2,0l0,0c0,0,0.1,0-0.1,0l0.1,0l0.1,0c0.1,0,0.3,0,0.4,0
		c0.6,0,1.2,0,1.9-0.1c1.3-0.1,2.6-0.3,4.2-0.7c0.8-0.1,1.6-0.5,2.5-0.8c0.9-0.3,1.7-0.7,2.6-1.1c1.7-0.9,3.6-2.1,5.3-3.6
		c1.7-1.5,3.3-3.4,4.6-5.6c1.3-2.2,2.2-4.8,2.7-7.5c0.1-0.3,0.1-0.7,0.2-1c0-0.4,0-0.7,0.1-1.1c0-0.4,0-0.7,0.1-1.1
		c0-0.4,0-0.8,0-1.2c0-1.6,0-3.2,0-4.8c0-3.3,0.1-6.6,0.1-10.1c0.1-6.9,0.1-14.2,0.2-21.8c0.1-15.1,0.2-31.2,0.4-47.3
		c0.5-64.4,1-128.8,1-128.8s0.5,64.4,1,128.8c0.1,16.1,0.3,32.2,0.4,47.3c0.1,7.5,0.1,14.8,0.2,21.8c0,3.5,0.1,6.8,0.1,10.1
		c0,1.6,0,3.2,0,4.8c0,0.4,0,0.8,0,1.2c0,0.4,0,0.8-0.1,1.2c0,0.4,0,0.8-0.1,1.2c0,0.4-0.1,0.8-0.2,1.2c-0.5,3.2-1.5,6.2-3,8.8
		c-1.5,2.6-3.3,4.7-5.2,6.5c-1.9,1.8-4,3.1-6,4.2c-1,0.5-2,1-3,1.3c-1,0.3-1.9,0.7-2.8,0.9c-1.8,0.5-3.6,0.8-5,0.9
		c-0.7,0-1.3,0.1-1.9,0.1c-0.1,0-0.3,0-0.4,0l-0.3,0l-0.2,0c-0.3,0-0.5,0-0.7,0c-1.9,0-2.9,0-2.9,0V270.5z"/>
	<path fill="#443223" d="M315.2,203c0,0,0.6,0,1.8,0c0.6,0,1.3,0,2.1,0c0.2,0,0.4,0,0.6,0c0.2,0,0.5,0,0.7,0c0.5,0,1,0,1.5-0.1
		c0.6,0,1-0.1,1.6-0.2c0.5-0.1,1.1-0.1,1.7-0.3c0.6-0.2,1.2-0.3,1.9-0.5c0.6-0.2,1.3-0.5,1.9-0.7c2.6-1,5.4-2.7,8-5.1
		c2.6-2.4,4.9-5.5,6.4-9.3c0.7-1.9,1.4-3.9,1.7-6c0.1-0.5,0.2-1.1,0.2-1.6c0-0.5,0.1-1.1,0.1-1.6c0.1-1.1,0.1-2.2,0.1-3.4
		c0.1-9.2,0.2-19,0.3-28.8c0.4-39.3,0.8-78.5,0.8-78.5s0.4,39.3,0.8,78.5c0.1,9.8,0.2,19.6,0.3,28.8c0,1.2,0.1,2.3,0,3.5
		c0,0.6,0,1.2-0.1,1.7c0,0.6-0.1,1.1-0.2,1.7c-0.3,2.3-0.9,4.5-1.7,6.5c-1.6,4.1-4.1,7.6-6.8,10.3c-2.8,2.7-5.8,4.6-8.7,5.8
		c-0.7,0.3-1.4,0.6-2.1,0.8c-0.7,0.2-1.4,0.4-2.1,0.6c-0.7,0.2-1.3,0.2-2,0.4c-0.6,0.1-1.3,0.2-1.8,0.2c-0.5,0-1,0.1-1.5,0.1
		c-0.2,0-0.5,0-0.7,0c-0.3,0-0.5,0-0.7,0c-0.8,0-1.5,0-2.1,0c-1.2,0-1.8,0-1.8,0V203z"/>
	<path fill="#443223" d="M383.8,289c0,0,0,0-0.1,0c-0.1,0-0.3,0-0.5,0c-0.4-0.1-0.9,0-1.8-0.2c-0.9-0.1-1.8-0.4-2.9-0.9
		c-0.5-0.3-1.1-0.5-1.7-0.9c-0.3-0.2-0.6-0.4-0.9-0.6c-0.3-0.2-0.6-0.4-0.8-0.7c-1.1-1-2.3-2.2-3.2-3.6c-1-1.5-1.9-3.1-2.5-5
		c-0.6-1.9-1.1-4-1.3-6.2c-0.1-2.3,0-4.4,0-6.8c0.1-18.6,0.3-43.3,0.5-68.1c0.4-49.5,0.8-99,0.8-99s0.4,49.5,0.8,99
		c0.2,24.7,0.4,49.5,0.5,68.1c0,2.3,0,4.6,0.1,6.5c0.2,2,0.6,3.8,1.2,5.5c0.6,1.7,1.4,3.1,2.2,4.4c0.8,1.2,1.8,2.2,2.8,3
		c1.9,1.5,3.8,2.2,4.9,2.3c0.5,0.2,1.2,0.1,1.5,0.2c0.1,0,0.2,0,0.2,0c0,0,0.1,0,0.1,0l0,0l0,0l0,0l0,0c0.1,0-0.1,0-0.1,0
		c0.1,0,0.1,0,0.1,0V289z"/>
	<path fill="#443223" d="M383.8,229c0,0,0.5,0,1.5,0c0.5,0,1.1,0,1.8,0c0.3,0,0.7,0,1.1,0l0.3,0c0,0,0.2,0,0.1,0l0.2,0
		c0.2,0,0.4,0,0.6,0c0.4,0,0.9,0,1.4-0.1c0.4,0,0.9-0.1,1.4-0.2c1-0.2,2.1-0.3,3.2-0.7c2.2-0.6,4.7-1.7,6.9-3.4
		c1.1-0.9,2.2-1.9,3.1-3.1c0.9-1.2,1.6-2.6,2-4.2c0.1-0.4,0.2-0.8,0.2-1.2c0.1-0.4,0.1-0.8,0.1-1.2c0.1-0.8,0-1.8,0.1-2.7
		c0-1.8,0-3.7,0.1-5.6c0.1-7.6,0.2-15.7,0.3-23.8c0.4-32.5,0.8-64.9,0.8-64.9s0.4,32.5,0.8,64.9c0.1,8.1,0.2,16.2,0.3,23.8
		c0,1.9,0,3.8,0.1,5.6c0,0.9,0,1.8,0,2.7c0,0.5,0,1-0.1,1.5c-0.1,0.5-0.2,0.9-0.3,1.4c-0.5,1.8-1.3,3.5-2.2,5
		c-1,1.4-2.2,2.7-3.5,3.7c-2.5,2.1-5.3,3.3-7.8,4.1c-1.2,0.4-2.4,0.6-3.6,0.8c-0.6,0.1-1.1,0.1-1.7,0.2c-0.5,0.1-1,0.1-1.4,0.1
		c-0.2,0-0.4,0-0.6,0c-0.1,0-0.2,0-0.4,0l-0.3,0c-0.4,0-0.8,0-1.1,0c-0.7,0-1.3,0-1.8,0c-1,0-1.5,0-1.5,0V229z"/>
	<g>
		<path fill="#7EAD79" d="M9,157.2c3.8,0.1,5.7,1.9,5.7,4.1c-0.1,2.2-2.1,3.9-5.9,3.8C5,165,0,160.9,0,160.9S5.3,157.1,9,157.2z"/>
		<g>
			<line fill="#443223" x1="19.9" y1="161.5" x2="4.4" y2="161.1"/>
			<path fill="#688963" d="M19.9,162l-15.5-0.9l15.5-0.1c0.3,0,0.5,0.2,0.5,0.5C20.4,161.8,20.2,162,19.9,162
				C19.9,162,19.9,162,19.9,162z"/>
		</g>
	</g>
	<g>
		<path fill="#7EAD79" d="M12,103.4c2.8,0.1,4.2,1.4,4.2,3c0,1.6-1.6,2.9-4.3,2.8c-2.8-0.1-6.5-3.1-6.5-3.1S9.3,103.3,12,103.4z"/>
		<g>
			<line fill="#443223" x1="20" y1="106.6" x2="8.6" y2="106.2"/>
			<path fill="#688963" d="M20,107l-11.4-0.7l11.4-0.1c0.2,0,0.4,0.2,0.4,0.4C20.4,106.8,20.2,107,20,107C20,107,20,107,20,107z"/>
		</g>
	</g>
	<g>
		<path fill="#7EAD79" d="M39.1,68.5c3.1,0.1,4.7,1.6,4.6,3.3S42,75,38.9,74.9s-7.2-3.4-7.2-3.4S36.1,68.4,39.1,68.5z"/>
		<g>
			<line fill="#443223" x1="48" y1="72" x2="35.3" y2="71.7"/>
			<path fill="#688963" d="M48,72l-12.6-0.6l12.6,0c0.2,0,0.4,0,0.4,0.3C48.4,72,48.2,72,48,72C48,72,48,72,48,72z"/>
		</g>
	</g>
	<g>
		<path fill="#7EAD79" d="M235.1,5.5c3.1,0.1,4.7,1.6,4.6,3.3s-1.7,3.2-4.8,3.1c-3.1-0.1-7.2-3.4-7.2-3.4S232.1,5.4,235.1,5.5z"/>
		<g>
			<line fill="#443223" x1="244" y1="9" x2="231.3" y2="8.7"/>
			<path fill="#688963" d="M244,9l-12.6-0.6l12.6,0c0.2,0,0.4,0,0.4,0.3C244.4,9,244.2,9,244,9C244,9,244,9,244,9z"/>
		</g>
	</g>
	<g>
		<path fill="#7EAD79" d="M256.7,70c-4.1-0.1-6.2-2.1-6.1-4.4c0.1-2.4,2.3-4.2,6.4-4.1c4.1,0.1,9.5,4.5,9.5,4.5S260.8,70.1,256.7,70
			z"/>
		<g>
			<line fill="#443223" x1="245" y1="65.4" x2="261.7" y2="65.8"/>
			<path fill="#688963" d="M245,64.8l16.7,1L245,65.9c-0.3,0-0.6-0.2-0.6-0.6C244.4,65,244.7,64.8,245,64.8
				C245,64.8,245,64.8,245,64.8z"/>
		</g>
	</g>
	<g>
		<path fill="#7EAD79" d="M261,158.1c-5.2-0.1-7.9-2.6-7.8-5.6c0.1-3,2.9-5.3,8.1-5.2c5.2,0.1,12.1,5.8,12.1,5.8
			S266.2,158.3,261,158.1z"/>
		<g>
			<line fill="#443223" x1="246.1" y1="152.2" x2="267.4" y2="152.8"/>
			<path fill="#688963" d="M246.2,151.5l21.3,1.3l-21.3,0.1c-0.4,0-0.7-0.3-0.7-0.7C245.4,151.9,245.7,151.5,246.2,151.5
				C246.1,151.5,246.2,151.5,246.2,151.5z"/>
		</g>
	</g>
	<g>
		<path fill="#7EAD79" d="M296.4,28.2c-3.3-0.1-5-1.7-5-3.6s1.9-3.4,5.2-3.3c3.3,0.1,7.7,3.7,7.7,3.7S299.7,28.3,296.4,28.2z"/>
		<g>
			<line fill="#443223" x1="286.9" y1="24.4" x2="300.5" y2="24.8"/>
			<path fill="#688963" d="M286.9,24l13.6,0.8l-13.6,0.1c-0.3,0-0.5-0.2-0.5-0.4C286.4,24.2,286.6,24,286.9,24
				C286.9,24,286.9,24,286.9,24z"/>
		</g>
	</g>
	<g>
		<path fill="#7EAD79" d="M305.9,99.1c3.5,0.1,5.3,1.8,5.2,3.8c-0.1,2-2,3.6-5.4,3.5c-3.5-0.1-8.1-3.9-8.1-3.9S302.4,99,305.9,99.1z
			"/>
		<g>
			<line fill="#443223" x1="315.9" y1="103" x2="301.6" y2="102.7"/>
			<path fill="#688963" d="M315.9,104l-14.3-1.1l14.3-0.2c0.3,0,0.5,0.4,0.5,0.7C316.4,103.6,316.2,104,315.9,104
				C315.9,104,315.9,104,315.9,104z"/>
		</g>
	</g>
	<g>
		<path fill="#7EAD79" d="M303,170.1c4.4,0.1,6.7,2.3,6.7,4.8s-2.5,4.6-6.9,4.4c-4.4-0.1-10.3-4.9-10.3-4.9S298.6,170,303,170.1z"/>
		<g>
			<line fill="#443223" x1="315.8" y1="175.1" x2="297.6" y2="174.6"/>
			<path fill="#688963" d="M315.8,175.7l-18.2-1.1l18.2-0.1c0.3,0,0.6,0.3,0.6,0.6C316.4,175.5,316.1,175.7,315.8,175.7
				C315.8,175.8,315.8,175.8,315.8,175.7z"/>
		</g>
	</g>
	<g>
		<path fill="#7EAD79" d="M327.4,52.5c-3.6-0.1-5.5-1.9-5.4-3.9s2-3.7,5.7-3.6c3.6,0.1,8.5,4,8.5,4S331,52.6,327.4,52.5z"/>
		<g>
			<line fill="#443223" x1="316.9" y1="48.4" x2="331.8" y2="48.8"/>
			<path fill="#688963" d="M316.9,48l14.9,0.9l-14.9,0.1c-0.3,0-0.5-0.2-0.5-0.5S316.6,48,316.9,48C316.9,48,316.9,48,316.9,48z"/>
		</g>
	</g>
	<g>
		<path fill="#7EAD79" d="M357.4,78.5c-3.6-0.1-5.5-1.9-5.4-3.9c0.1-2.1,2-3.7,5.7-3.6c3.6,0.1,8.5,4,8.5,4S361,78.6,357.4,78.5z"/>
		<g>
			<line fill="#443223" x1="346.9" y1="74.4" x2="361.8" y2="74.8"/>
			<path fill="#688963" d="M346.9,74l14.9,0.9l-14.9,0.1c-0.3,0-0.5-0.2-0.5-0.5C346.4,74.2,346.6,74,346.9,74
				C346.9,74,346.9,74,346.9,74z"/>
		</g>
	</g>
	<g>
		<path fill="#7EAD79" d="M375.2,109.7c-1.9-0.1-2.9-1-2.9-2.1s1.1-2,3-1.9c1.9,0.1,4.5,2.1,4.5,2.1S377.1,109.8,375.2,109.7z"/>
		<g>
			<line fill="#443223" x1="369.7" y1="107.5" x2="377.6" y2="107.8"/>
			<path fill="#688963" d="M369.7,108l7.9,0.1L369.7,108c-0.2,0-0.3,0.1-0.3,0C369.4,107.9,369.5,108,369.7,108
				C369.7,108,369.7,108,369.7,108z"/>
		</g>
	</g>
	<g>
		<path fill="#7EAD79" d="M361,164.8c2.8,0.1,4.2,1.4,4.2,3c0,1.6-1.6,2.9-4.3,2.8c-2.8-0.1-6.5-3.1-6.5-3.1S358.2,164.7,361,164.8z
			"/>
		<g>
			<line fill="#443223" x1="369" y1="168" x2="357.6" y2="167.7"/>
			<path fill="#688963" d="M369,168l-11.4-0.5l11.4,0c0.2,0,0.4,0,0.4,0.2C369.4,168,369.2,168,369,168C369,168,369,168,369,168z"/>
		</g>
	</g>
	<g>
		<path fill="#7EAD79" d="M356.9,221.4c4.1,0.1,6.3,2.1,6.2,4.5c-0.1,2.4-2.3,4.3-6.5,4.2s-9.7-4.6-9.7-4.6S352.7,221.3,356.9,221.4
			z"/>
		<g>
			<line fill="#443223" x1="368.8" y1="226.1" x2="351.7" y2="225.6"/>
			<path fill="#688963" d="M368.8,226l-17.1-0.7l17.1,0.1c0.3,0,0.6,0,0.6,0.3C369.4,226,369.2,226,368.8,226
				C368.8,226,368.8,226,368.8,226z"/>
		</g>
	</g>
	<g>
		<path fill="#7EAD79" d="M451.9,245.1c-4.1-0.1-6.3-2.1-6.2-4.5s2.3-4.3,6.4-4.1c4.1,0.1,9.6,4.6,9.6,4.6S456,245.2,451.9,245.1z"
			/>
		<g>
			<line fill="#443223" x1="440" y1="240.3" x2="457" y2="240.8"/>
			<path fill="#688963" d="M440,240l17,0.9l-17,0c-0.3,0-0.6-0.2-0.6-0.5C439.4,240.2,439.7,240,440,240C440,240,440,240,440,240z"
				/>
		</g>
	</g>
	<g>
		<path fill="#7EAD79" d="M395.6,151.6c-3.7-0.1-5.6-1.9-5.6-4c0.1-2.1,2.1-3.8,5.8-3.7s8.6,4.1,8.6,4.1S399.3,151.7,395.6,151.6z"
			/>
		<g>
			<line fill="#443223" x1="384.9" y1="147.4" x2="400.1" y2="147.8"/>
			<path fill="#688963" d="M385,147l15.2,0.9l-15.2,0.1c-0.3,0-0.5-0.2-0.5-0.5C384.4,147.2,384.6,147,385,147
				C384.9,147,384.9,147,385,147z"/>
		</g>
	</g>
	<g>
		<path fill="#7EAD79" d="M420.6,175.6c-3.7-0.1-5.6-1.9-5.6-4c0.1-2.1,2.1-3.8,5.8-3.7s8.6,4.1,8.6,4.1S424.3,175.7,420.6,175.6z"
			/>
		<g>
			<line fill="#443223" x1="409.9" y1="171.4" x2="425.1" y2="171.8"/>
			<path fill="#688963" d="M410,171l15.2,0.9l-15.2,0.1c-0.3,0-0.5-0.2-0.5-0.5C409.4,171.2,409.6,171,410,171
				C409.9,171,409.9,171,410,171z"/>
		</g>
	</g>
	<g>
		<path fill="#7EAD79" d="M416.6,134.2c-2.4-0.1-3.6-1.2-3.6-2.6c0-1.4,1.3-2.4,3.7-2.4c2.4,0.1,5.5,2.6,5.5,2.6
			S418.9,134.3,416.6,134.2z"/>
		<g>
			<line fill="#443223" x1="409.7" y1="131.5" x2="419.5" y2="131.8"/>
			<path fill="#688963" d="M409.8,131l9.7,0.7l-9.7,0.1c-0.2,0-0.3-0.2-0.3-0.4C409.4,131.2,409.6,131,409.8,131
				C409.7,131,409.7,131,409.8,131z"/>
		</g>
	</g>
	<g>
		<path fill="#7EAD79" d="M393.8,80c-3.1-0.1-4.7-1.6-4.7-3.4c0-1.8,1.7-3.2,4.8-3.1c3.1,0.1,7.2,3.4,7.2,3.4S396.9,80.1,393.8,80z"
			/>
		<g>
			<line fill="#443223" x1="384.9" y1="76.4" x2="397.6" y2="76.8"/>
			<path fill="#688963" d="M384.9,76l12.7,0.8l-12.8,0.1c-0.2,0-0.4-0.2-0.4-0.4C384.4,76.2,384.6,76,384.9,76
				C384.8,76,384.9,76,384.9,76z"/>
		</g>
	</g>
	<g>
		<path fill="#7EAD79" d="M447.8,185.6c-2.8-0.1-4.2-1.4-4.2-3c0-1.6,1.6-2.9,4.3-2.8c2.8,0.1,6.5,3.1,6.5,3.1
			S450.5,185.7,447.8,185.6z"/>
		<g>
			<line fill="#443223" x1="439.8" y1="182.5" x2="451.2" y2="182.8"/>
			<path fill="#688963" d="M439.8,182l11.3,0.7l-11.4,0.1c-0.2,0-0.4-0.2-0.4-0.4C439.4,182.2,439.6,182,439.8,182
				C439.8,182,439.8,182,439.8,182z"/>
		</g>
	</g>
	<g>
		<path fill="#7EAD79" d="M431.4,210c2.6,0.1,4,1.3,4,2.9c0,1.5-1.5,2.7-4.1,2.6c-2.6-0.1-6.2-2.9-6.2-2.9S428.8,209.9,431.4,210z"
			/>
		<g>
			<line fill="#443223" x1="439" y1="213" x2="428.2" y2="212.7"/>
			<path fill="#688963" d="M439,213l-10.8-0.5l10.8,0c0.2,0,0.4,0,0.4,0.2C439.4,213,439.2,213,439,213C439,213,439,213,439,213z"/>
		</g>
	</g>
	<g>
		<path fill="#7EAD79" d="M335.1,127.8c3.7,0.1,5.7,1.9,5.6,4.1c-0.1,2.2-2.1,3.9-5.9,3.8c-3.7-0.1-8.8-4.2-8.8-4.2
			S331.3,127.7,335.1,127.8z"/>
		<g>
			<line fill="#443223" x1="345.9" y1="132.1" x2="330.5" y2="131.6"/>
			<path fill="#688963" d="M345.9,132l-15.4-0.6l15.4,0.1c0.3,0,0.5,0,0.5,0.3C346.4,132,346.2,132,345.9,132
				C345.9,132,345.9,132,345.9,132z"/>
		</g>
	</g>
	<g>
		<path fill="#7EAD79" d="M262,272.1c-5.2-0.1-7.9-2.6-7.8-5.6c0.1-3,2.9-5.3,8.1-5.2c5.2,0.1,12.1,5.8,12.1,5.8
			S267.2,272.3,262,272.1z"/>
		<g>
			<line fill="#443223" x1="247.1" y1="266.2" x2="268.4" y2="266.8"/>
			<path fill="#688963" d="M247.2,265.5l21.3,1.3l-21.3,0.1c-0.4,0-0.7-0.3-0.7-0.7C246.4,265.9,246.7,265.5,247.2,265.5
				C247.1,265.5,247.2,265.5,247.2,265.5z"/>
		</g>
	</g>
	<g>
		<path fill="#7EAD79" d="M91.9,163.7c4.8,0.1,7.3,2.5,7.2,5.2s-2.7,5-7.5,4.8c-4.8-0.1-11.2-5.3-11.2-5.3S87.1,163.6,91.9,163.7z"
			/>
		<g>
			<line fill="#443223" x1="105.7" y1="169.2" x2="86" y2="168.6"/>
			<path fill="#688963" d="M105.7,169.8L86,168.6l19.8-0.1c0.4,0,0.7,0.3,0.7,0.7C106.4,169.5,106.1,169.8,105.7,169.8
				C105.7,169.8,105.7,169.8,105.7,169.8z"/>
		</g>
	</g>
	<g>
		<path fill="#7EAD79" d="M77.1,144.5c-4.5-0.1-6.9-2.3-6.8-4.9c0.1-2.6,2.5-4.7,7.1-4.6c4.5,0.1,10.6,5,10.6,5
			S81.7,144.6,77.1,144.5z"/>
		<g>
			<line fill="#443223" x1="64.1" y1="139.3" x2="82.7" y2="139.8"/>
			<path fill="#688963" d="M64.1,138.7l18.6,1.1L64,139.9c-0.3,0-0.6-0.3-0.6-0.6C63.4,139,63.7,138.7,64.1,138.7
				C64,138.7,64.1,138.7,64.1,138.7z"/>
		</g>
	</g>
	<g>
		<path fill="#7EAD79" d="M101.4,41.3c2.3,0.1,3.5,1.2,3.5,2.5c0,1.3-1.3,2.4-3.6,2.3s-5.4-2.6-5.4-2.6S99.1,41.2,101.4,41.3z"/>
		<g>
			<line fill="#443223" x1="108.1" y1="43.9" x2="98.5" y2="43.7"/>
			<path fill="#688963" d="M108.1,44l-9.5-0.5l9.5,0c0.2,0,0.3,0,0.3,0.2S108.3,44,108.1,44C108.1,44,108.1,44,108.1,44z"/>
		</g>
	</g>
	<g>
		<path fill="#7EAD79" d="M140.9,184.7c4.8,0.1,7.3,2.5,7.2,5.2c-0.1,2.8-2.7,5-7.5,4.8c-4.8-0.1-11.2-5.3-11.2-5.3
			S136.1,184.6,140.9,184.7z"/>
		<g>
			<line fill="#443223" x1="154.7" y1="190.2" x2="135" y2="189.6"/>
			<path fill="#688963" d="M154.7,190.8l-19.7-1.2l19.8-0.1c0.4,0,0.7,0.3,0.7,0.7C155.4,190.5,155.1,190.8,154.7,190.8
				C154.7,190.8,154.7,190.8,154.7,190.8z"/>
		</g>
	</g>
	<g>
		<path fill="#7EAD79" d="M156,61.8c3.8,0.1,5.7,1.9,5.7,4.1c-0.1,2.2-2.1,3.9-5.9,3.8s-8.8-4.2-8.8-4.2S152.2,61.7,156,61.8z"/>
		<g>
			<line fill="#443223" x1="166.9" y1="66.1" x2="151.4" y2="65.6"/>
			<path fill="#688963" d="M166.8,67l-15.5-1.2l15.5-0.2c0.3,0,0.5,0.4,0.5,0.7S167.2,67,166.8,67C166.9,67,166.9,67,166.8,67z"/>
		</g>
	</g>
	<g>
		<path fill="#7EAD79" d="M178.5,28.2c-3.3-0.1-5.1-1.7-5-3.6c0.1-1.9,1.9-3.4,5.2-3.4c3.3,0.1,7.8,3.7,7.8,3.7
			S181.8,28.3,178.5,28.2z"/>
		<g>
			<line fill="#443223" x1="168.9" y1="24.4" x2="182.6" y2="24.8"/>
			<path fill="#688963" d="M168.9,24l13.7,0.8l-13.8,0.1c-0.3,0-0.5-0.2-0.5-0.4C168.4,24.2,168.6,24,168.9,24
				C168.9,24,168.9,24,168.9,24z"/>
		</g>
	</g>
	<g>
		<path fill="#7EAD79" d="M201.3,85.2c-4.3-0.1-6.5-2.2-6.4-4.6c0.1-2.5,2.4-4.4,6.6-4.3c4.3,0.1,9.9,4.7,9.9,4.7
			S205.5,85.3,201.3,85.2z"/>
		<g>
			<line fill="#443223" x1="189" y1="80.3" x2="206.5" y2="80.8"/>
			<path fill="#688963" d="M189,79.7l17.5,1.1L189,80.9c-0.3,0-0.6-0.3-0.6-0.6C188.4,80,188.7,79.7,189,79.7
				C189,79.7,189,79.7,189,79.7z"/>
		</g>
	</g>
	<g>
		<path fill="#7EAD79" d="M206.2,179.8c4.7,0.1,7.2,2.4,7.1,5.1c-0.1,2.7-2.6,4.9-7.4,4.7s-11-5.2-11-5.2S201.4,179.7,206.2,179.8z"
			/>
		<g>
			<line fill="#443223" x1="219.7" y1="185.2" x2="200.3" y2="184.6"/>
			<path fill="#688963" d="M219.7,185.8l-19.4-1.2l19.4-0.1c0.4,0,0.7,0.3,0.7,0.7C220.4,185.5,220.1,185.8,219.7,185.8
				C219.7,185.8,219.7,185.8,219.7,185.8z"/>
		</g>
	</g>
	<g>
		<path fill="#7EAD79" d="M209.8,108c3.5,0.1,5.4,1.8,5.3,3.8c-0.1,2-2,3.6-5.5,3.5s-8.2-3.9-8.2-3.9S206.2,107.9,209.8,108z"/>
		<g>
			<line fill="#443223" x1="219.9" y1="112.1" x2="205.4" y2="111.7"/>
			<path fill="#688963" d="M219.9,113l-14.5-1.1l14.5-0.2c0.3,0,0.5,0.4,0.5,0.7C220.4,112.6,220.2,113,219.9,113
				C219.9,113,219.9,113,219.9,113z"/>
		</g>
	</g>
	<g>
		<path fill="#7EAD79" d="M97.5,85.6c4,0.1,6,2,5.9,4.3c-0.1,2.3-2.2,4.1-6.2,4c-4-0.1-9.2-4.4-9.2-4.4S93.5,85.5,97.5,85.6z"/>
		<g>
			<line fill="#443223" x1="108.8" y1="90.1" x2="92.6" y2="89.6"/>
			<path fill="#688963" d="M108.8,90.6l-16.3-1l16.3-0.1c0.3,0,0.6,0.2,0.6,0.5C109.4,90.4,109.2,90.6,108.8,90.6
				C108.8,90.6,108.8,90.6,108.8,90.6z"/>
		</g>
	</g>
	<g>
		<path fill="#7EAD79" d="M137.6,115.6c-3.7-0.1-5.6-1.9-5.6-4c0.1-2.1,2.1-3.8,5.8-3.7c3.7,0.1,8.6,4.1,8.6,4.1
			S141.3,115.7,137.6,115.6z"/>
		<g>
			<line fill="#443223" x1="126.9" y1="111.4" x2="142.1" y2="111.8"/>
			<path fill="#688963" d="M127,111l15.2,0.9l-15.2,0.1c-0.3,0-0.5-0.2-0.5-0.5S126.6,111,127,111C126.9,111,126.9,111,127,111z"/>
		</g>
	</g>
	<g>
		<path fill="#EADEA4" d="M325.3,322c-0.4,0-0.5-0.3-0.5-0.8v-2.9l-0.3-7.7c0-0.4,0.3-0.8,0.7-0.8c0.4,0,0.6,0.3,0.6,0.7l0.1,7.7
			v2.9C325.8,321.7,325.7,322,325.3,322z"/>
		<path fill="#EADEA4" d="M322.8,322c-0.4,0-1-0.3-1-0.8v-2.8c0-0.4,0.6-0.8,1-0.8c0.4,0,1,0.3,1,0.8v2.8
			C323.8,321.7,323.2,322,322.8,322z"/>
		<path fill="#EADEA4" d="M327.8,322c-0.4,0-1-0.3-1-0.8v-2.8c0-0.4,0.6-0.8,1-0.8c0.4,0,1,0.3,1,0.8v2.8
			C328.8,321.7,328.2,322,327.8,322z"/>
		<ellipse transform="matrix(0.9887 -0.15 0.15 0.9887 -41.5464 52.8255)" fill="#43D6CE" cx="329.5" cy="301.9" rx="9" ry="12.1"/>
		<ellipse fill="#43D6CE" cx="325.6" cy="286.2" rx="7.1" ry="7.3"/>
		<polygon fill="#EADEA4" points="324.5,292.6 323.3,290.3 322.1,288 324.5,288 326.8,288 325.7,290.3 		"/>
		<circle cx="327.6" cy="285.1" r="1.1"/>
		<circle cx="321.5" cy="285.3" r="1.1"/>
		
			<ellipse transform="matrix(0.9786 -0.2058 0.2058 0.9786 -55.5264 73.5859)" fill="#B7F7F2" cx="326" cy="303.7" rx="5" ry="8.7"/>
		<polygon fill="#44CCC2" points="347.5,282.9 342.3,283.3 334,307.2 336.2,309.3 		"/>
		
			<ellipse transform="matrix(0.9105 -0.4136 0.4136 0.9105 -94.644 166.1928)" fill="#43D6CE" cx="336.6" cy="301.7" rx="4.4" ry="11.8"/>
		<polygon fill="#43D6CE" points="322.8,281.3 322.8,276.2 323.8,277.1 324.5,274.7 325.7,277 326.8,276.4 326.8,279 		"/>
		<path fill="#42BCB0" d="M336.6,310.2c0,0-0.2-0.1-0.6-0.3c-0.4-0.2-0.9-0.6-1.4-1.1c-0.5-0.5-1.1-1.1-1.7-1.9
			c-0.1-0.2-0.3-0.4-0.4-0.6c-0.1-0.2-0.3-0.4-0.4-0.6c-0.2-0.4-0.4-0.9-0.6-1.4l-0.1-0.4l-0.1-0.4c-0.1-0.2-0.1-0.5-0.2-0.7
			c-0.1-0.5-0.2-1-0.2-1.5c0-0.2,0-0.5,0-0.7c0-0.2,0-0.5,0-0.7c0-0.2,0.1-0.4,0.1-0.6c0-0.2,0.1-0.4,0.1-0.6c0-0.2,0.1-0.4,0.2-0.5
			c0.1-0.2,0.1-0.3,0.2-0.5c0.1-0.3,0.2-0.5,0.3-0.7c0.1-0.2,0.2-0.3,0.3-0.4c0.1-0.1,0.1-0.1,0.1-0.1s0,0.1,0,0.2
			c0,0.1,0,0.3-0.1,0.5c0,0.2,0,0.5-0.1,0.7c0,0.1,0,0.3,0,0.5c0,0.2,0,0.3,0,0.5c0,0.2,0,0.3,0,0.5c0,0.2,0,0.4,0,0.6
			c0,0.2,0,0.4,0.1,0.6c0,0.2,0.1,0.4,0.1,0.6c0,0.2,0.1,0.4,0.1,0.6c0.1,0.2,0.1,0.4,0.2,0.6c0.1,0.2,0.1,0.4,0.2,0.6l0.1,0.3
			l0.1,0.3c0.1,0.4,0.3,0.8,0.5,1.2c0.2,0.4,0.4,0.8,0.6,1.2c0.2,0.4,0.4,0.7,0.6,1.1c0.2,0.3,0.4,0.7,0.6,1c0.4,0.6,0.7,1.1,1,1.4
			C336.5,310,336.6,310.2,336.6,310.2z"/>
		<path fill="#EADEA4" d="M332.8,322c-0.4,0-1-0.3-1-0.8v-2.9l-0.1-7.6c0-0.4,0.4-0.7,0.9-0.7c0,0,0,0,0,0c0.4,0,0.9,0.3,0.9,0.7
			l0.4,7.7v2.9C333.8,321.7,333.2,322,332.8,322z"/>
		<path fill="#EADEA4" d="M330.3,322c-0.4,0-0.5-0.3-0.5-0.8v-2.8c0-0.4,0.1-0.8,0.5-0.8c0.4,0,0.5,0.3,0.5,0.8v2.8
			C330.8,321.7,330.7,322,330.3,322z"/>
		<path fill="#EADEA4" d="M335.3,322c-0.4,0-0.5-0.3-0.5-0.8v-2.8c0-0.4,0.1-0.8,0.5-0.8c0.4,0,0.5,0.3,0.5,0.8v2.8
			C335.8,321.7,335.7,322,335.3,322z"/>
	</g>
</g>
</svg>
