<svg version="1.1" id="Layer_1" xmlns="http://www.w3.org/2000/svg" xmlns:xlink="http://www.w3.org/1999/xlink" x="0px" y="0px"
	 viewBox="0 0 161.9 471" style="enable-background:new 0 0 161.9 471;" xml:space="preserve">
<style type="text/css">
	.st0{fill:#FFE411;}
	.st1{fill:#CFCECC;}
	.st2{fill:#CCCCCC;}
	.st3{fill:#DEDDDD;}
	.st4{fill:#C1C1C0;}
	.st5{fill:#EFEFEF;}
	.st6{fill:#D6D6D6;}
	.st7{fill:#6D6D6D;}
	.st8{fill:#F3D318;}
	.st9{fill:#E8E8E8;}
	.st10{fill:#EAEAEA;}
	.st11{fill:#FFFFFF;}
	.st12{fill:#5B5C5C;}
	.st13{fill:#F2F2F2;}
	.st14{fill:#999999;}
	.st15{fill:#BABABA;}
	.st16{fill:#A7CF46;}
	.st17{fill:#93B23D;}
	.st18{fill:#ED8433;}
	.st19{fill:#D66D27;}
</style>
<rect x="15.8" y="139.4" class="st0" width="27.3" height="233.5"/>
<rect x="17.4" y="44.4" class="st1" width="24" height="95"/>
<rect x="24.4" y="20.4" class="st1" width="10.5" height="15.5"/>
<rect x="19.3" y="41.6" class="st1" width="20.8" height="2.8"/>
<rect x="21.8" y="38.7" class="st1" width="15.7" height="2.8"/>
<rect x="22.9" y="35.9" class="st2" width="13.3" height="2.8"/>
<rect x="17.3" y="372.9" class="st3" width="23.8" height="30.8"/>
<rect x="19.1" y="403.7" class="st3" width="20.5" height="3.7"/>
<rect x="21.4" y="407.4" class="st4" width="15.3" height="30.5"/>
<rect x="25.3" y="372.9" class="st5" width="7.8" height="30.8"/>
<rect x="25.9" y="403.7" class="st5" width="6.7" height="3.7"/>
<rect x="24.2" y="407.4" class="st6" width="6.9" height="30.5"/>
<rect x="28.3" y="6.1" class="st7" width="2.8" height="14.3"/>
<rect x="15.8" y="139.4" class="st8" width="7.2" height="233.5"/>
<rect x="36" y="139.4" class="st8" width="7.2" height="233.5"/>
<path class="st3" d="M15.8,337.2h27.3v19.5l1.7,8c0,0,1.8,1.3,2-1.5c0.2-2.8-1.2-73.5-1.2-73.5s-9.3-9.2-2.5-20.3
	c0,0,5.3-2.7,6.2,1.3l1.7,90.7c0,0,1.3,8-6.8,7.7c0,0-3.3,0.7-4.5-11.2c0,0-1.3-4.7-5-2.7c0,0-14.8,1.2-18.8-5.2V337.2z"/>
<rect x="25.5" y="44.4" class="st9" width="7.9" height="95"/>
<rect x="26.6" y="20.4" class="st9" width="6" height="15.5"/>
<rect x="23.7" y="41.6" class="st10" width="12" height="2.8"/>
<rect x="25.1" y="38.7" class="st10" width="9" height="2.8"/>
<rect x="25.8" y="35.9" class="st10" width="7.7" height="2.8"/>
<rect x="27" y="372.9" class="st11" width="1.7" height="30.8"/>
<rect x="27.1" y="403.7" class="st11" width="1.5" height="3.7"/>
<rect x="27.3" y="407.4" class="st11" width="1.1" height="30.5"/>
<rect x="27.1" y="44.4" class="st11" width="1.7" height="95"/>
<rect x="27.3" y="20.4" class="st11" width="1.3" height="15.5"/>
<rect x="25.1" y="380.9" class="st12" width="9.5" height="14.3"/>
<rect x="26.7" y="41.6" class="st11" width="2.6" height="2.8"/>
<rect x="27" y="38.7" class="st11" width="2" height="2.8"/>
<rect x="27.1" y="35.9" class="st11" width="1.7" height="2.8"/>
<path class="st2" d="M22.9,354.4L22.9,354.4v-17.1h-7.2v12.8C17.2,352.3,19.9,353.6,22.9,354.4z"/>
<rect x="29" y="337.2" class="st13" width="5.6" height="18"/>
<polygon class="st14" points="43.1,356.7 40.1,351.9 40.1,337.2 43.1,337.2 "/>
<path class="st15" d="M43.1,269.4c-6.8,11.2,2.5,20.3,2.5,20.3v-21.1C44.3,268.8,43.1,269.4,43.1,269.4z"/>
<rect x="70.8" y="155.7" class="st16" width="27.3" height="233.5"/>
<rect x="72.4" y="60.7" class="st1" width="24" height="95"/>
<rect x="79.4" y="36.7" class="st1" width="10.5" height="15.5"/>
<rect x="74.3" y="57.9" class="st1" width="20.8" height="2.8"/>
<rect x="76.8" y="55.1" class="st1" width="15.7" height="2.8"/>
<rect x="77.9" y="52.2" class="st2" width="13.3" height="2.8"/>
<rect x="72.3" y="389.2" class="st3" width="23.8" height="30.8"/>
<rect x="74.1" y="420.1" class="st3" width="20.5" height="3.7"/>
<rect x="76.4" y="423.7" class="st4" width="15.3" height="30.5"/>
<rect x="80.3" y="389.2" class="st5" width="7.8" height="30.8"/>
<rect x="80.9" y="420.1" class="st5" width="6.7" height="3.7"/>
<rect x="79.2" y="423.7" class="st6" width="6.9" height="30.5"/>
<rect x="83.3" y="22.4" class="st7" width="2.8" height="14.3"/>
<rect x="70.8" y="155.7" class="st17" width="7.2" height="233.5"/>
<rect x="91" y="155.7" class="st17" width="7.2" height="233.5"/>
<path class="st3" d="M70.8,353.6h27.3v19.5l1.7,8c0,0,1.8,1.3,2-1.5c0.2-2.8-1.2-73.5-1.2-73.5s-9.3-9.2-2.5-20.3
	c0,0,5.3-2.7,6.2,1.3l1.7,90.7c0,0,1.3,8-6.8,7.7c0,0-3.3,0.7-4.5-11.2c0,0-1.3-4.7-5-2.7c0,0-14.8,1.2-18.8-5.2V353.6z"/>
<rect x="80.5" y="60.7" class="st9" width="7.9" height="95"/>
<rect x="81.6" y="36.7" class="st9" width="6" height="15.5"/>
<rect x="78.7" y="57.9" class="st10" width="12" height="2.8"/>
<rect x="80.1" y="55.1" class="st10" width="9" height="2.8"/>
<rect x="80.8" y="52.2" class="st10" width="7.7" height="2.8"/>
<rect x="82" y="389.2" class="st11" width="1.7" height="30.8"/>
<rect x="82.1" y="420.1" class="st11" width="1.5" height="3.7"/>
<rect x="82.3" y="423.7" class="st11" width="1.1" height="30.5"/>
<rect x="82.1" y="60.7" class="st11" width="1.7" height="95"/>
<rect x="82.3" y="36.7" class="st11" width="1.3" height="15.5"/>
<rect x="80.1" y="397.2" class="st12" width="9.5" height="14.3"/>
<rect x="81.7" y="57.9" class="st11" width="2.6" height="2.8"/>
<rect x="82" y="55.1" class="st11" width="2" height="2.8"/>
<rect x="82.1" y="52.2" class="st11" width="1.7" height="2.8"/>
<path class="st2" d="M77.9,370.7L77.9,370.7v-17.1h-7.2v12.8C72.2,368.6,74.9,369.9,77.9,370.7z"/>
<rect x="84" y="353.6" class="st13" width="5.6" height="18"/>
<polygon class="st14" points="98.1,373.1 95.1,368.2 95.1,353.6 98.1,353.6 "/>
<path class="st15" d="M98.1,285.7c-6.8,11.2,2.5,20.3,2.5,20.3v-21.1C99.3,285.2,98.1,285.7,98.1,285.7z"/>
<rect x="115.3" y="163.7" class="st18" width="27.3" height="233.5"/>
<rect x="116.9" y="68.7" class="st1" width="24" height="95"/>
<rect x="123.9" y="44.7" class="st1" width="10.5" height="15.5"/>
<rect x="118.8" y="65.9" class="st1" width="20.8" height="2.8"/>
<rect x="121.3" y="63" class="st1" width="15.7" height="2.8"/>
<rect x="122.4" y="60.2" class="st2" width="13.3" height="2.8"/>
<rect x="116.8" y="397.2" class="st3" width="23.8" height="30.8"/>
<rect x="118.6" y="428" class="st3" width="20.5" height="3.7"/>
<rect x="120.9" y="431.7" class="st4" width="15.3" height="30.5"/>
<rect x="124.8" y="397.2" class="st5" width="7.8" height="30.8"/>
<rect x="125.4" y="428" class="st5" width="6.7" height="3.7"/>
<rect x="123.7" y="431.7" class="st6" width="6.9" height="30.5"/>
<rect x="127.8" y="30.4" class="st7" width="2.8" height="14.3"/>
<rect x="115.3" y="163.7" class="st19" width="7.2" height="233.5"/>
<rect x="135.5" y="163.7" class="st19" width="7.2" height="233.5"/>
<path class="st3" d="M115.3,361.5h27.3V381l1.7,8c0,0,1.8,1.3,2-1.5c0.2-2.8-1.2-73.5-1.2-73.5s-9.3-9.2-2.5-20.3
	c0,0,5.3-2.7,6.2,1.3l1.7,90.7c0,0,1.3,8-6.8,7.7c0,0-3.3,0.7-4.5-11.2c0,0-1.3-4.7-5-2.7c0,0-14.8,1.2-18.8-5.2V361.5z"/>
<rect x="125" y="68.7" class="st9" width="7.9" height="95"/>
<rect x="126.1" y="44.7" class="st9" width="6" height="15.5"/>
<rect x="123.2" y="65.9" class="st10" width="12" height="2.8"/>
<rect x="124.6" y="63" class="st10" width="9" height="2.8"/>
<rect x="125.3" y="60.2" class="st10" width="7.7" height="2.8"/>
<rect x="126.5" y="397.2" class="st11" width="1.7" height="30.8"/>
<rect x="126.6" y="428" class="st11" width="1.5" height="3.7"/>
<rect x="126.8" y="431.7" class="st11" width="1.1" height="30.5"/>
<rect x="126.6" y="68.7" class="st11" width="1.7" height="95"/>
<rect x="126.8" y="44.7" class="st11" width="1.3" height="15.5"/>
<rect x="124.6" y="405.2" class="st12" width="9.5" height="14.3"/>
<rect x="126.2" y="65.9" class="st11" width="2.6" height="2.8"/>
<rect x="126.5" y="63" class="st11" width="2" height="2.8"/>
<rect x="126.6" y="60.2" class="st11" width="1.7" height="2.8"/>
<path class="st2" d="M122.4,378.6L122.4,378.6v-17.1h-7.2v12.8C116.7,376.6,119.4,377.9,122.4,378.6z"/>
<rect x="128.5" y="361.5" class="st13" width="5.6" height="18"/>
<polygon class="st14" points="142.6,381 139.6,376.2 139.6,361.5 142.6,361.5 "/>
<path class="st15" d="M142.6,293.7c-6.8,11.2,2.5,20.3,2.5,20.3v-21.1C143.8,293.1,142.6,293.7,142.6,293.7z"/>
</svg>
