<?xml version="1.0" encoding="utf-8"?>
<!-- Generator: Adobe Illustrator 17.1.0, SVG Export Plug-In . SVG Version: 6.00 Build 0)  -->
<!DOCTYPE svg PUBLIC "-//W3C//DTD SVG 1.1//EN" "http://www.w3.org/Graphics/SVG/1.1/DTD/svg11.dtd">
<svg version="1.1" id="Layer_1" xmlns="http://www.w3.org/2000/svg" xmlns:xlink="http://www.w3.org/1999/xlink" x="0px" y="0px"
	 width="411.2px" height="411.2px" viewBox="0 0 411.2 411.2" enable-background="new 0 0 411.2 411.2" xml:space="preserve">
<radialGradient id="SVGID_1_" cx="205.5802" cy="205.5802" r="205.5802" gradientUnits="userSpaceOnUse">
	<stop  offset="0" style="stop-color:#FFFFFF"/>
	<stop  offset="1" style="stop-color:#FFFFFF;stop-opacity:0"/>
</radialGradient>
<circle fill="url(#SVGID_1_)" cx="205.6" cy="205.6" r="205.6"/>
<polygon fill="#FEE991" points="205.6,33 223,68.8 248.7,38.5 256.6,77.4 289,54.5 287,94.1 324.2,80 312.4,117.9 351.8,113.4 
	331,147.3 370.3,152.7 341.7,180.3 378.5,195.4 343.9,215 375.7,238.7 337.4,249.1 362.3,280 322.6,280.5 339.1,316.7 300.5,307.3 
	307.4,346.4 272.3,327.7 269.4,367.3 240,340.5 227.3,378.1 205.6,344.9 183.9,378.1 171.1,340.5 141.8,367.3 138.8,327.7 
	103.8,346.4 110.7,307.3 72.1,316.7 88.6,280.5 48.8,280 73.8,249.1 35.4,238.7 67.3,215 32.7,195.4 69.4,180.3 40.8,152.7 
	80.2,147.3 59.3,113.4 98.8,117.9 87,80 124.1,94.1 122.1,54.5 154.6,77.4 162.5,38.5 188.2,68.8 "/>
<circle fill="#FFF3A9" cx="205.6" cy="205.6" r="123"/>
</svg>
